<svg preserveAspectRatio="xMidYMid meet" viewBox="166 132 167 163" xmlns="http://www.w3.org/2000/svg" version="1.0" style="max-height: 500px" width="167" height="163">

<g stroke="none" fill="#000000" transform="translate(0.000000,500.000000) scale(0.100000,-0.100000)">
<path d="M2368 3591 c-202 -67 -328 -265 -299 -471 27 -194 172 -346 363 -381&#10;207 -38 420 92 489 298 32 97 24 225 -19 317 -44 94 -124 175 -214 216 -62 29&#10;-84 34 -167 37 -75 2 -109 -1 -153 -16z m190 -161 c17 -11 32 -24 32 -30 0 -5&#10;24 -10 54 -10 104 0 136 -67 83 -171 l-26 -49 26 -45 c27 -48 32 -99 14 -133&#10;-13 -24 -72 -43 -110 -36 -20 4 -33 -2 -55 -25 -24 -25 -38 -31 -74 -31 -35 0&#10;-49 6 -72 29 -25 25 -37 29 -81 28 -45 -1 -55 3 -76 28 -21 24 -24 35 -18 69&#10;3 23 17 59 30 81 22 39 23 41 5 65 -25 36 -43 97 -36 125 11 44 44 65 102 65&#10;29 0 56 5 60 11 11 18 68 49 89 49 11 0 35 -9 53 -20z"/>
<path d="M2456 3409 c-14 -11 -26 -23 -26 -27 0 -4 17 -14 38 -23 34 -14 40&#10;-14 76 2 l39 17 -28 26 c-34 31 -63 33 -99 5z"/>
<path d="M2303 3355 c-16 -11 -23 -26 -23 -50 0 -34 27 -105 41 -105 18 0 40&#10;53 61 151 4 20 -52 23 -79 4z"/>
<path d="M2627 3363 c-3 -5 0 -27 8 -49 8 -21 14 -48 15 -60 0 -11 9 -29 19&#10;-38 19 -17 20 -16 40 23 24 47 27 94 7 110 -19 16 -82 26 -89 14z"/>
<path d="M2401 3328 c-27 -74 -27 -74 23 -38 52 38 55 45 24 54 -35 9 -38 8&#10;-47 -16z"/>
<path d="M2548 3338 c-14 -11 -10 -17 28 -45 46 -34 52 -30 33 26 -12 33 -34&#10;40 -61 19z"/>
<path d="M2469 3292 c-74 -49 -92 -72 -93 -117 -1 -49 13 -69 82 -115 50 -33&#10;56 -32 130 27 39 32 42 38 42 82 0 40 -5 51 -32 78 -40 36 -79 63 -93 63 -5 0&#10;-22 -8 -36 -18z"/>
<path d="M2306 3124 c-11 -15 -21 -48 -24 -72 -4 -36 -1 -48 13 -59 17 -11 95&#10;-19 95 -9 0 2 -7 20 -15 39 -8 20 -15 47 -15 61 0 13 -8 34 -18 46 l-18 22&#10;-18 -28z"/>
<path d="M2667 3132 c-10 -10 -17 -28 -17 -39 0 -11 -7 -40 -15 -63 -8 -23&#10;-15 -44 -15 -46 0 -2 18 -4 39 -4 70 0 89 45 51 128 -10 23 -21 42 -23 42 -2&#10;0 -11 -8 -20 -18z"/>
<path d="M2385 3068 c18 -65 27 -79 49 -72 46 14 45 19 -5 57 -45 34 -50 35&#10;-44 15z"/>
<path d="M2577 3052 l-48 -37 32 -13 c17 -7 33 -11 36 -8 5 4 34 96 30 95 -1&#10;0 -24 -17 -50 -37z"/>
<path d="M2461 2984 l-33 -15 23 -25 c29 -31 70 -31 106 0 l28 24 -39 16 c-45&#10;19 -41 19 -85 0z"/>
<path d="M2345 2573 c-19 -4 -20 -12 -20 -183 l0 -180 30 0 30 0 -3 185 c-2&#10;102 -6 184 -10 184 -4 -1 -16 -4 -27 -6z"/>
<path d="M2024 2546 c-9 -24 4 -48 23 -44 12 2 18 12 18 28 0 29 -32 41 -41&#10;16z"/>
<path d="M2814 2546 c-9 -24 4 -48 23 -44 12 2 18 12 18 28 0 29 -32 41 -41&#10;16z"/>
<path d="M1740 2540 c12 -8 15 -37 15 -160 0 -123 -3 -153 -15 -161 -10 -7 14&#10;-9 82 -7 80 2 102 7 125 24 51 38 37 125 -22 140 -31 8 -32 16 -3 29 59 26 55&#10;105 -7 130 -39 17 -200 21 -175 5z m157 -27 c7 -9 13 -31 13 -48 0 -17 -6 -39&#10;-13 -48 -14 -21 -87 -35 -88 -18 0 6 0 36 0 66 0 30 0 60 0 66 1 17 74 3 88&#10;-18z m8 -158 c51 -50 21 -126 -51 -129 l-39 -1 -3 78 -3 77 36 0 c25 0 44 -8&#10;60 -25z"/>
<path d="M2672 2470 c-18 -22 -28 -40 -23 -40 7 0 11 -36 11 -98 0 -83 3 -102&#10;18 -115 24 -22 54 -21 83 2 l23 18 -31 -4 c-17 -3 -33 -1 -36 4 -3 4 -7 49 -8&#10;98 l-4 90 38 3 c47 4 49 22 2 22 -34 0 -43 12 -36 53 2 12 -3 8 -37 -33z"/>
<path d="M2050 2453 c-42 -12 -44 -13 -32 -25 16 -16 16 -190 0 -206 -9 -9 -3&#10;-12 31 -12 31 0 40 3 34 13 -4 6 -10 62 -13 123 -4 92 -8 110 -20 107z"/>
<path d="M2830 2450 c-15 -4 -23 -12 -21 -21 11 -36 12 -178 2 -198 -11 -20&#10;-9 -21 30 -21 33 0 39 3 31 13 -6 7 -13 63 -14 123 l-3 110 -25 -6z"/>
<path d="M2968 2445 c-76 -43 -81 -192 -7 -230 15 -8 36 -15 46 -15 24 0 83&#10;37 83 51 0 8 -7 6 -18 -4 -66 -60 -146 46 -112 147 20 62 80 73 101 18 10 -25&#10;11 -26 21 -8 22 40 -62 70 -114 41z"/>
<path d="M3170 2453 c-30 -11 -50 -37 -50 -65 0 -30 11 -43 78 -89 45 -31 51&#10;-48 26 -73 -23 -24 -53 -19 -83 13 l-27 29 4 -28 c3 -22 11 -30 33 -35 69 -15&#10;123 20 117 76 -2 28 -12 40 -52 66 -28 18 -54 39 -58 47 -12 22 1 45 30 53 20&#10;5 30 0 49 -21 l23 -27 0 24 c0 31 -45 46 -90 30z"/>
<path d="M2120 2424 l0 -25 26 20 c25 19 84 29 84 14 0 -6 -46 -91 -97 -180&#10;l-25 -43 91 0 91 0 0 30 0 29 -25 -24 c-16 -17 -35 -25 -60 -25 -19 0 -35 3&#10;-35 6 0 7 69 135 102 192 l20 32 -86 0 c-86 0 -86 0 -86 -26z"/>
<path d="M2424 2428 c8 -13 31 -67 52 -122 l38 -99 -20 -36 c-17 -31 -24 -36&#10;-52 -35 -25 2 -32 -2 -32 -17 0 -12 7 -19 19 -19 41 0 70 43 122 180 28 74 58&#10;143 66 153 15 16 14 17 -13 17 -27 0 -29 -2 -30 -43 0 -23 -9 -62 -20 -87&#10;l-20 -45 -29 78 c-24 66 -26 80 -14 88 9 6 -2 9 -34 9 -47 0 -47 0 -33 -22z"/>
</g>
</svg>